<?xml version="1.0" encoding="UTF-8" standalone="no"?>
<!-- Created with Inkscape (http://www.inkscape.org/) -->

<svg
   xmlns:dc="http://purl.org/dc/elements/1.1/"
   xmlns:cc="http://creativecommons.org/ns#"
   xmlns:rdf="http://www.w3.org/1999/02/22-rdf-syntax-ns#"
   xmlns:svg="http://www.w3.org/2000/svg"
   xmlns="http://www.w3.org/2000/svg"
   xmlns:sodipodi="http://sodipodi.sourceforge.net/DTD/sodipodi-0.dtd"
   xmlns:inkscape="http://www.inkscape.org/namespaces/inkscape"
   width="153.2903"
   height="118.95694"
   viewBox="0 0 153.2903 118.95694"
   version="1.1"
   id="SVGRoot"
   inkscape:version="0.92.4 (5da689c313, 2019-01-14)"
   sodipodi:docname="logo-programmkino-small.svg">
  <defs
     id="defs166" />
  <sodipodi:namedview
     id="base"
     pagecolor="#ffffff"
     bordercolor="#666666"
     borderopacity="1.0"
     inkscape:pageopacity="0.0"
     inkscape:pageshadow="2"
     inkscape:zoom="5.12"
     inkscape:cx="87.385728"
     inkscape:cy="33.039174"
     inkscape:document-units="px"
     inkscape:current-layer="layer1"
     showgrid="false"
     inkscape:window-width="1920"
     inkscape:window-height="1057"
     inkscape:window-x="-8"
     inkscape:window-y="-8"
     inkscape:window-maximized="1"
     inkscape:grid-bbox="true"
     fit-margin-top="5"
     fit-margin-left="5"
     fit-margin-right="5"
     fit-margin-bottom="5" />
  <metadata
     id="metadata169">
    <rdf:RDF>
      <cc:Work
         rdf:about="">
        <dc:format>image/svg+xml</dc:format>
        <dc:type
           rdf:resource="http://purl.org/dc/dcmitype/StillImage" />
        <dc:title></dc:title>
      </cc:Work>
    </rdf:RDF>
  </metadata>
  <g
     inkscape:label="Ebene 1"
     inkscape:groupmode="layer"
     id="layer1"
     transform="translate(68.598273,51.119101)">
    <g
       transform="matrix(0.24367607,0,0,0.24367607,-82.612135,-187.15709)"
       id="layer1-7"
       inkscape:label="Ebene 1"
       style="fill:#333333">
      <path
         inkscape:connector-curvature="0"
         id="path2926"
         d="m 295.08593,985.17967 c -34.45249,-22.4052 -71.69324,-46.61823 -82.75721,-53.80672 l -20.11629,-13.06999 -17.02925,-39.55088 -17.02926,-39.5509 -0.11362,28.92834 -0.11363,28.92836 -6.13721,-3.70391 C 148.414,891.31682 130.43709,880.50884 111.84078,869.3362 L 78.029256,849.02237 V 770.10794 691.1935 l 7.785164,-3.10009 c 4.281835,-1.70506 13.308646,-5.29238 20.05957,-7.97185 6.75094,-2.67946 23.27026,-9.24212 36.7096,-14.58367 13.43936,-5.34157 24.61311,-9.76246 24.83056,-9.82421 0.37066,-0.10529 0.39908,0.50712 0.45461,9.79674 l 0.0592,9.90903 15.94268,-16.20456 15.94267,-16.20456 18.38024,-7.1865 c 49.83276,-19.48414 144.82804,-56.61747 145.32953,-56.80882 0.4976,-0.18988 0.52586,-0.17626 0.22729,0.10953 -0.18751,0.1795 -15.07025,13.10471 -33.07272,28.72269 -18.00248,15.61797 -54.16088,46.99673 -80.35197,69.7306 -26.19112,22.73385 -53.00182,45.9985 -59.57939,51.69922 -6.57754,5.70072 -11.90419,10.46722 -11.837,10.59224 0.0977,0.18183 98.83484,157.83544 119.72353,191.16269 2.89925,4.62563 17.28537,27.58903 31.96917,51.02975 14.68382,23.44067 26.88241,42.90077 27.10797,43.24457 0.22555,0.3438 0.32163,0.6217 0.21348,0.6176 -0.10817,0 -28.38502,-18.339 -62.83754,-40.74424 z m 91.25748,40.18783 c 0.35516,-0.542 23.11721,-36.86693 78.5551,-125.36251 14.29283,-22.81563 28.35848,-45.26759 31.25698,-49.89322 13.95453,-22.2695 29.58262,-47.21402 48.39603,-77.2464 11.34302,-18.10716 20.57371,-33.0523 20.51262,-33.21144 -0.0611,-0.15915 -7.97022,-7.12963 -17.57593,-15.48998 -9.6057,-8.36036 -47.48608,-41.33148 -84.17864,-73.26916 -36.69256,-31.93767 -70.24263,-61.13198 -74.55572,-64.87623 -4.31309,-3.74426 -7.94427,-6.90112 -8.06929,-7.01525 -0.29643,-0.27059 -8.84225,-3.60582 77.39702,30.20613 41.94327,16.44474 78.45966,30.75799 81.14754,31.80721 l 4.88703,1.90768 16.18528,16.30897 16.18524,16.30897 0.0106,-9.94455 c 0.006,-5.4695 0.057,-9.94455 0.11408,-9.94455 0.0571,0 7.65191,3.00236 16.87732,6.67191 9.22538,3.66954 29.32912,11.66444 44.67499,17.76644 l 27.90157,11.09456 v 78.91754 78.91757 l -18.80941,11.31932 c -42.33514,25.47692 -61.01593,36.70954 -61.05095,36.70951 -0.0205,0 -0.0152,-12.93928 0.0121,-28.75395 0.027,-15.81466 -0.0354,-28.75394 -0.13863,-28.75394 -0.10317,0 -7.58547,16.85174 -16.62727,37.44834 -9.04183,20.59658 -16.8137,38.26662 -17.27089,39.26676 l -0.8312,1.81844 -28.16497,18.4055 c -15.49075,10.12303 -35.12049,22.95119 -43.62166,28.50702 -8.50118,5.55583 -22.05418,14.41235 -30.11779,19.68112 -8.0636,5.26879 -25.56869,16.70819 -38.90017,25.42089 -13.33149,8.7126 -24.31352,15.8412 -24.40452,15.8412 -0.0909,0 0,-0.2538 0.20408,-0.5639 z M 366.45328,991.30095 C 363.62678,987.28203 342.8722,957.80841 320.33199,925.804 297.7918,893.79959 275.4601,862.09068 270.706,855.33976 c -9.52212,-13.52161 -52.26179,-74.20462 -60.3172,-85.64005 -2.79734,-3.97108 -5.13355,-7.34656 -5.1916,-7.50103 -0.0818,-0.21781 30.35238,-32.18273 44.1228,-46.34193 l 2.35225,-2.41868 2.79311,1.01515 c 28.03206,10.18811 58.65723,16.85433 89.09873,19.39425 16.11663,1.34469 35.75372,1.46918 51.21331,0.32465 29.39246,-2.17604 57.69833,-8.26182 82.39771,-17.71556 2.1878,-0.83737 4.55391,-1.73834 5.25798,-2.00213 l 1.28015,-0.47964 1.56115,1.27464 c 0.85865,0.70104 13.0684,10.65146 27.13284,22.11205 14.06444,11.46058 25.56038,20.95817 25.54652,21.10574 -0.0136,0.14756 -3.39808,5.12694 -7.52054,11.06526 -4.12247,5.93832 -21.18427,30.5383 -37.91517,54.66662 -16.73087,24.12833 -34.78452,50.16032 -40.1192,57.84887 -22.8201,32.88917 -80.65447,116.31005 -80.78614,116.52675 -0.0106,0.018 -2.3329,-3.2549 -5.15942,-7.27377 z m -2.47556,-267.70692 c -28.49877,-1.856 -53.37035,-13.71751 -64.43162,-30.72811 -6.92226,-10.6454 -7.48768,-23.21403 -1.54054,-34.24459 7.23736,-13.42365 23.65558,-24.537 44.16608,-29.89564 9.09991,-2.37749 17.01539,-3.44691 27.26136,-3.68315 16.1168,-0.37161 31.66805,2.30359 45.2335,7.78129 3.25628,1.31488 9.78918,4.63148 12.70008,6.44754 12.67031,7.90479 20.77971,18.38212 22.88358,29.56544 0.84486,4.49107 0.48329,10.22464 -0.94365,14.96355 -2.18365,7.25188 -7.46224,14.62455 -14.75089,20.60273 -16.70876,13.70459 -43.39613,20.96119 -70.5779,19.19094 z"
         style="fill:#333333;fill-opacity:1" />
    </g>
  </g>
</svg>
