<?xml version="1.0" encoding="UTF-8" standalone="no"?>
<!-- Created with Inkscape (http://www.inkscape.org/) -->

<svg
   xmlns:dc="http://purl.org/dc/elements/1.1/"
   xmlns:cc="http://creativecommons.org/ns#"
   xmlns:rdf="http://www.w3.org/1999/02/22-rdf-syntax-ns#"
   xmlns:svg="http://www.w3.org/2000/svg"
   xmlns="http://www.w3.org/2000/svg"
   xmlns:sodipodi="http://sodipodi.sourceforge.net/DTD/sodipodi-0.dtd"
   xmlns:inkscape="http://www.inkscape.org/namespaces/inkscape"
   width="562.53326"
   height="118.95694"
   id="svg2860"
   version="1.1"
   inkscape:version="0.92.4 (5da689c313, 2019-01-14)"
   sodipodi:docname="logo-programmkino.svg"
   inkscape:export-filename="/home/borowski/Desktop/kik-300dpi.png"
   inkscape:export-xdpi="50"
   inkscape:export-ydpi="50">
  <defs
     id="defs2862" />
  <sodipodi:namedview
     id="base"
     pagecolor="#ffffff"
     bordercolor="#666666"
     borderopacity="1.0"
     inkscape:pageopacity="0.0"
     inkscape:pageshadow="2"
     inkscape:zoom="1"
     inkscape:cx="167.21124"
     inkscape:cy="42.257852"
     inkscape:document-units="px"
     inkscape:current-layer="layer1"
     showgrid="false"
     inkscape:window-width="1680"
     inkscape:window-height="987"
     inkscape:window-x="1912"
     inkscape:window-y="-5"
     inkscape:window-maximized="1"
     showguides="true"
     inkscape:guide-bbox="true"
     fit-margin-top="5"
     fit-margin-left="5"
     fit-margin-right="5"
     fit-margin-bottom="5" />
  <metadata
     id="metadata2865">
    <rdf:RDF>
      <cc:Work
         rdf:about="">
        <dc:format>image/svg+xml</dc:format>
        <dc:type
           rdf:resource="http://purl.org/dc/dcmitype/StillImage" />
        <dc:title></dc:title>
      </cc:Work>
    </rdf:RDF>
  </metadata>
  <g
     inkscape:label="Ebene 1"
     inkscape:groupmode="layer"
     id="layer1"
     transform="translate(-6.7097045,-929.08303)">
    <g
       transform="matrix(0.24367607,0,0,0.24367607,-7.3041579,793.04504)"
       id="layer1-7"
       inkscape:label="Ebene 1"
       style="fill:#333333">
      <path
         id="path2926"
         d="m 295.08593,985.17967 c -34.45249,-22.4052 -71.69324,-46.61823 -82.75721,-53.80672 l -20.11629,-13.06999 -17.02925,-39.55088 -17.02926,-39.5509 -0.11362,28.92834 -0.11363,28.92836 -6.13721,-3.70391 C 148.414,891.31682 130.43709,880.50884 111.84078,869.3362 L 78.029256,849.02237 V 770.10794 691.1935 l 7.785164,-3.10009 c 4.281835,-1.70506 13.308646,-5.29238 20.05957,-7.97185 6.75094,-2.67946 23.27026,-9.24212 36.7096,-14.58367 13.43936,-5.34157 24.61311,-9.76246 24.83056,-9.82421 0.37066,-0.10529 0.39908,0.50712 0.45461,9.79674 l 0.0592,9.90903 15.94268,-16.20456 15.94267,-16.20456 18.38024,-7.1865 c 49.83276,-19.48414 144.82804,-56.61747 145.32953,-56.80882 0.4976,-0.18988 0.52586,-0.17626 0.22729,0.10953 -0.18751,0.1795 -15.07025,13.10471 -33.07272,28.72269 -18.00248,15.61797 -54.16088,46.99673 -80.35197,69.7306 -26.19112,22.73385 -53.00182,45.9985 -59.57939,51.69922 -6.57754,5.70072 -11.90419,10.46722 -11.837,10.59224 0.0977,0.18183 98.83484,157.83544 119.72353,191.16269 2.89925,4.62563 17.28537,27.58903 31.96917,51.02975 14.68382,23.44067 26.88241,42.90077 27.10797,43.24457 0.22555,0.3438 0.32163,0.6217 0.21348,0.6176 -0.10817,0 -28.38502,-18.339 -62.83754,-40.74424 z m 91.25748,40.18783 c 0.35516,-0.542 23.11721,-36.86693 78.5551,-125.36251 14.29283,-22.81563 28.35848,-45.26759 31.25698,-49.89322 13.95453,-22.2695 29.58262,-47.21402 48.39603,-77.2464 11.34302,-18.10716 20.57371,-33.0523 20.51262,-33.21144 -0.0611,-0.15915 -7.97022,-7.12963 -17.57593,-15.48998 -9.6057,-8.36036 -47.48608,-41.33148 -84.17864,-73.26916 -36.69256,-31.93767 -70.24263,-61.13198 -74.55572,-64.87623 -4.31309,-3.74426 -7.94427,-6.90112 -8.06929,-7.01525 -0.29643,-0.27059 -8.84225,-3.60582 77.39702,30.20613 41.94327,16.44474 78.45966,30.75799 81.14754,31.80721 l 4.88703,1.90768 16.18528,16.30897 16.18524,16.30897 0.0106,-9.94455 c 0.006,-5.4695 0.057,-9.94455 0.11408,-9.94455 0.0571,0 7.65191,3.00236 16.87732,6.67191 9.22538,3.66954 29.32912,11.66444 44.67499,17.76644 l 27.90157,11.09456 v 78.91754 78.91757 l -18.80941,11.31932 c -42.33514,25.47692 -61.01593,36.70954 -61.05095,36.70951 -0.0205,0 -0.0152,-12.93928 0.0121,-28.75395 0.027,-15.81466 -0.0354,-28.75394 -0.13863,-28.75394 -0.10317,0 -7.58547,16.85174 -16.62727,37.44834 -9.04183,20.59658 -16.8137,38.26662 -17.27089,39.26676 l -0.8312,1.81844 -28.16497,18.4055 c -15.49075,10.12303 -35.12049,22.95119 -43.62166,28.50702 -8.50118,5.55583 -22.05418,14.41235 -30.11779,19.68112 -8.0636,5.26879 -25.56869,16.70819 -38.90017,25.42089 -13.33149,8.7126 -24.31352,15.8412 -24.40452,15.8412 -0.0909,0 0,-0.2538 0.20408,-0.5639 z M 366.45328,991.30095 C 363.62678,987.28203 342.8722,957.80841 320.33199,925.804 297.7918,893.79959 275.4601,862.09068 270.706,855.33976 c -9.52212,-13.52161 -52.26179,-74.20462 -60.3172,-85.64005 -2.79734,-3.97108 -5.13355,-7.34656 -5.1916,-7.50103 -0.0818,-0.21781 30.35238,-32.18273 44.1228,-46.34193 l 2.35225,-2.41868 2.79311,1.01515 c 28.03206,10.18811 58.65723,16.85433 89.09873,19.39425 16.11663,1.34469 35.75372,1.46918 51.21331,0.32465 29.39246,-2.17604 57.69833,-8.26182 82.39771,-17.71556 2.1878,-0.83737 4.55391,-1.73834 5.25798,-2.00213 l 1.28015,-0.47964 1.56115,1.27464 c 0.85865,0.70104 13.0684,10.65146 27.13284,22.11205 14.06444,11.46058 25.56038,20.95817 25.54652,21.10574 -0.0136,0.14756 -3.39808,5.12694 -7.52054,11.06526 -4.12247,5.93832 -21.18427,30.5383 -37.91517,54.66662 -16.73087,24.12833 -34.78452,50.16032 -40.1192,57.84887 -22.8201,32.88917 -80.65447,116.31005 -80.78614,116.52675 -0.0106,0.018 -2.3329,-3.2549 -5.15942,-7.27377 z m -2.47556,-267.70692 c -28.49877,-1.856 -53.37035,-13.71751 -64.43162,-30.72811 -6.92226,-10.6454 -7.48768,-23.21403 -1.54054,-34.24459 7.23736,-13.42365 23.65558,-24.537 44.16608,-29.89564 9.09991,-2.37749 17.01539,-3.44691 27.26136,-3.68315 16.1168,-0.37161 31.66805,2.30359 45.2335,7.78129 3.25628,1.31488 9.78918,4.63148 12.70008,6.44754 12.67031,7.90479 20.77971,18.38212 22.88358,29.56544 0.84486,4.49107 0.48329,10.22464 -0.94365,14.96355 -2.18365,7.25188 -7.46224,14.62455 -14.75089,20.60273 -16.70876,13.70459 -43.39613,20.96119 -70.5779,19.19094 z"
         style="fill:#333333;fill-opacity:1"
         inkscape:connector-curvature="0" />
    </g>
    <g
       id="g3008">
      <path
         d="m 189.22273,999.99854 -10.74787,-16.43792 -4.29388,5.87445 v 10.56347 h -6.84913 v -38.59222 h 6.84913 v 18.46631 l 13.11872,-18.46631 h 7.79747 l -12.09135,16.8594 14.40952,21.73282 h -8.19261"
         style="font-style:normal;font-variant:normal;font-weight:bold;font-stretch:normal;font-size:53.95006943px;font-family:'Trebuchet MS';-inkscape-font-specification:'Accent Bold';fill:#333333;fill-opacity:1;stroke:none"
         id="path2896"
         inkscape:connector-curvature="0" />
      <path
         d="m 200.76088,999.99854 v -38.59222 h 6.84913 v 38.59222 h -6.84913"
         style="font-style:normal;font-variant:normal;font-weight:bold;font-stretch:normal;font-size:53.95006943px;font-family:'Trebuchet MS';-inkscape-font-specification:'Accent Bold';fill:#333333;fill-opacity:1;stroke:none"
         id="path2898"
         inkscape:connector-curvature="0" />
      <path
         d="m 241.01269,1000.5254 -18.72974,-24.41979 v 23.91929 h -6.5857 v -38.61858 h 3.29285 l 18.22922,23.28704 v -23.28704 h 6.5857 v 39.11908 h -2.79233"
         style="font-style:normal;font-variant:normal;font-weight:bold;font-stretch:normal;font-size:53.95006943px;font-family:'Trebuchet MS';-inkscape-font-specification:'Accent Bold';fill:#333333;fill-opacity:1;stroke:none"
         id="path2900"
         inkscape:connector-curvature="0" />
      <path
         d="m 249.89022,980.37314 c -1e-5,-5.49684 1.50153,-10.14195 4.50462,-13.93534 3.02063,-3.81089 7.05107,-5.71635 12.09134,-5.71639 5.54953,4e-5 9.79072,1.7211 12.72358,5.16319 2.9328,3.44216 4.39921,8.27167 4.39925,14.48854 -4e-5,6.21692 -1.5367,11.1518 -4.60999,14.80466 -3.0558,3.65287 -7.40235,5.4793 -13.03969,5.4793 -5.18077,0 -9.15853,-1.80887 -11.93329,-5.42661 -2.75722,-3.61774 -4.13583,-8.57018 -4.13582,-14.85735 m 7.11255,0 c -10e-6,4.51342 0.76394,8.00823 2.29183,10.48444 1.52787,2.47623 3.74944,3.71434 6.66473,3.71434 3.42454,0 6.03248,-1.21177 7.82381,-3.63531 1.80885,-2.42353 2.71328,-5.94468 2.71331,-10.56347 -3e-5,-9.04433 -3.33678,-13.56651 -10.01027,-13.56654 -3.05578,3e-5 -5.40028,1.22936 -7.03353,3.68799 -1.63326,2.44113 -2.44989,5.73398 -2.44988,9.87855"
         style="font-style:normal;font-variant:normal;font-weight:bold;font-stretch:normal;font-size:53.95006943px;font-family:'Trebuchet MS';-inkscape-font-specification:'Accent Bold';fill:#333333;fill-opacity:1;stroke:none"
         id="path2902"
         inkscape:connector-curvature="0" />
      <path
         d="m 306.02674,999.99854 v -38.59222 h 6.84913 v 38.59222 h -6.84913"
         style="font-style:normal;font-variant:normal;font-weight:bold;font-stretch:normal;font-size:53.95006943px;font-family:'Trebuchet MS';-inkscape-font-specification:'Accent Bold';fill:#333333;fill-opacity:1;stroke:none"
         id="path2904"
         inkscape:connector-curvature="0" />
      <path
         d="M 356.94738,1000.0249 H 350.309 l -4.00411,-20.81084 -7.77113,21.31134 h -2.44988 l -7.77113,-21.31134 -4.16216,20.81084 h -6.61205 l 7.77113,-38.61858 h 3.63531 l 8.35067,26.00035 8.16627,-26.00035 h 3.60896 l 7.8765,38.61858"
         style="font-style:normal;font-variant:normal;font-weight:bold;font-stretch:normal;font-size:53.95006943px;font-family:'Trebuchet MS';-inkscape-font-specification:'Accent Bold';fill:#333333;fill-opacity:1;stroke:none"
         id="path2906"
         inkscape:connector-curvature="0" />
      <path
         d="m 399.33296,999.99854 -10.74787,-16.43792 -4.29388,5.87445 v 10.56347 h -6.84913 v -38.59222 h 6.84913 v 18.46631 l 13.11872,-18.46631 h 7.79747 l -12.09135,16.8594 14.40952,21.73282 h -8.19261"
         style="font-style:normal;font-variant:normal;font-weight:bold;font-stretch:normal;font-size:53.95006943px;font-family:'Trebuchet MS';-inkscape-font-specification:'Accent Bold';fill:#333333;fill-opacity:1;stroke:none"
         id="path2908"
         inkscape:connector-curvature="0" />
      <path
         d="m 433.2625,999.99854 -2.81868,-7.82382 h -13.22409 l -2.68697,7.82382 h -7.61307 l 15.3842,-39.11907 h 3.00308 l 15.51592,39.11907 h -7.56039 m -9.45707,-27.3175 -4.63633,14.25146 h 9.27267 l -4.63634,-14.25146"
         style="font-style:normal;font-variant:normal;font-weight:bold;font-stretch:normal;font-size:53.95006943px;font-family:'Trebuchet MS';-inkscape-font-specification:'Accent Bold';fill:#333333;fill-opacity:1;stroke:none"
         id="path2910"
         inkscape:connector-curvature="0" />
      <path
         d="m 443.03568,997.86477 2.52891,-6.13788 c 2.70452,1.89669 5.36514,2.84503 7.98187,2.84503 4.02165,0 6.03248,-1.40495 6.0325,-4.21485 -2e-5,-1.31713 -0.47419,-2.5728 -1.42251,-3.76702 -0.94836,-1.1942 -2.9065,-2.5289 -5.87445,-4.00411 -2.9504,-1.49274 -4.94367,-2.71329 -5.97981,-3.66165 -1.0186,-0.96588 -1.80888,-2.1074 -2.37086,-3.42457 -0.54442,-1.31711 -0.81663,-2.77474 -0.81662,-4.3729 -10e-6,-2.98549 1.08883,-5.46171 3.2665,-7.42867 2.19523,-1.96689 5.00513,-2.95036 8.4297,-2.9504 4.4607,4e-5 7.73599,0.83423 9.82587,2.50257 l -2.08108,5.90079 c -2.406,-1.72103 -4.94369,-2.58156 -7.61307,-2.5816 -1.58058,4e-5 -2.80991,0.42152 -3.688,1.26446 -0.86054,0.82544 -1.2908,1.90549 -1.29079,3.24016 -1e-5,2.21283 2.44987,4.51343 7.34964,6.90182 2.58158,1.26447 4.44313,2.43234 5.58467,3.50359 1.1415,1.05373 2.01081,2.29184 2.60794,3.71434 0.59708,1.40496 0.89563,2.97675 0.89566,4.71536 -3e-5,3.12602 -1.23814,5.69883 -3.71434,7.71844 -2.45868,2.01962 -5.76031,3.02942 -9.90489,3.02942 -3.6002,0 -6.84914,-0.93077 -9.74684,-2.79233"
         style="font-style:normal;font-variant:normal;font-weight:bold;font-stretch:normal;font-size:53.95006943px;font-family:'Trebuchet MS';-inkscape-font-specification:'Accent Bold';fill:#333333;fill-opacity:1;stroke:none"
         id="path2912"
         inkscape:connector-curvature="0" />
      <path
         d="m 488.18726,967.49151 v 32.50703 h -6.84913 v -32.50703 h -12.27575 v -6.08519 h 31.95382 v 6.08519 h -12.82894"
         style="font-style:normal;font-variant:normal;font-weight:bold;font-stretch:normal;font-size:53.95006943px;font-family:'Trebuchet MS';-inkscape-font-specification:'Accent Bold';fill:#333333;fill-opacity:1;stroke:none"
         id="path2914"
         inkscape:connector-curvature="0" />
      <path
         d="m 512.31724,967.49151 v 9.03558 h 12.74992 v 5.82176 h -12.74992 v 11.5645 h 17.49163 v 6.08519 h -24.34076 v -38.59222 h 24.63053 v 6.08519 h -17.7814"
         style="font-style:normal;font-variant:normal;font-weight:bold;font-stretch:normal;font-size:53.95006943px;font-family:'Trebuchet MS';-inkscape-font-specification:'Accent Bold';fill:#333333;fill-opacity:1;stroke:none"
         id="path2916"
         inkscape:connector-curvature="0" />
      <path
         d="m 561.44661,1000.5254 -18.72974,-24.41979 v 23.91929 h -6.5857 v -38.61858 h 3.29285 l 18.22922,23.28704 v -23.28704 h 6.58571 v 39.11908 h -2.79234"
         style="font-style:normal;font-variant:normal;font-weight:bold;font-stretch:normal;font-size:53.95006943px;font-family:'Trebuchet MS';-inkscape-font-specification:'Accent Bold';fill:#333333;fill-opacity:1;stroke:none"
         id="path2918"
         inkscape:connector-curvature="0" />
    </g>
    <g
       id="g2969">
      <path
         d="m 166.82939,1019.795 0.82569,-1.8462 c 0.6927,0.5504 1.47509,0.8257 2.34716,0.8257 0.90299,0 1.35449,-0.3216 1.3545,-0.9649 -1e-5,-0.3772 -0.13608,-0.6865 -0.40821,-0.9277 -0.27214,-0.2412 -0.80095,-0.5257 -1.58642,-0.8535 -1.71322,-0.7113 -2.56983,-1.707 -2.56983,-2.9873 0,-0.8597 0.3278,-1.5277 0.9834,-2.0039 0.6556,-0.4824 1.49365,-0.7237 2.51416,-0.7237 1.03287,0 2.0039,0.232 2.91309,0.6958 l -0.66797,1.7998 c -0.50717,-0.4329 -1.21225,-0.6494 -2.11524,-0.6494 -0.81022,0 -1.21533,0.3217 -1.21533,0.9649 0,0.2536 0.13297,0.4824 0.39893,0.6865 0.26594,0.2041 0.83495,0.4793 1.70703,0.8257 0.87206,0.3402 1.49983,0.7545 1.8833,1.2431 0.38346,0.4887 0.57519,1.0793 0.57519,1.772 0,0.9216 -0.34326,1.6483 -1.02978,2.1802 -0.68034,0.5257 -1.60808,0.7886 -2.7832,0.7886 -0.66179,0 -1.19369,-0.056 -1.59571,-0.167 -0.39583,-0.1052 -0.90609,-0.3247 -1.53076,-0.6587"
         style="font-style:normal;font-variant:normal;font-weight:bold;font-stretch:normal;font-size:19px;font-family:'Trebuchet MS';-inkscape-font-specification:'Accent Bold';fill:#333333;fill-opacity:1;stroke:none"
         id="path2821"
         inkscape:connector-curvature="0" />
      <path
         d="m 175.99541,1012.3638 h -1.15039 v -1.8647 h 1.15039 v -2.0225 l 2.31933,-0.8535 v 2.876 h 2.72754 v 1.8647 h -2.72754 v 4.3511 c 0,0.7113 0.11133,1.2153 0.33399,1.5122 0.22265,0.2907 0.6123,0.436 1.16894,0.436 0.55664,0 1.07617,-0.1515 1.5586,-0.4545 v 2.1337 c -0.5381,0.1856 -1.30502,0.2784 -2.30078,0.2784 -0.98959,0 -1.75033,-0.2784 -2.28223,-0.835 -0.5319,-0.5628 -0.79785,-1.3607 -0.79785,-2.3935 v -5.0284"
         style="font-style:normal;font-variant:normal;font-weight:bold;font-stretch:normal;font-size:19px;font-family:'Trebuchet MS';-inkscape-font-specification:'Accent Bold';fill:#333333;fill-opacity:1;stroke:none"
         id="path2823"
         inkscape:connector-curvature="0" />
      <path
         d="m 189.57744,1020.4444 v -0.835 c -0.32781,0.2784 -0.77931,0.5165 -1.35449,0.7144 -0.5752,0.1979 -1.10401,0.2969 -1.58643,0.2969 -2.30697,0 -3.46045,-1.2246 -3.46045,-3.6739 v -6.4477 h 2.31934 v 6.2715 c -1e-5,1.2741 0.5721,1.9111 1.71631,1.9111 0.52571,0 1.01431,-0.1361 1.46582,-0.4082 0.45149,-0.2721 0.75145,-0.5876 0.8999,-0.9463 v -6.8281 h 2.31933 v 9.9453 h -2.31933"
         style="font-style:normal;font-variant:normal;font-weight:bold;font-stretch:normal;font-size:19px;font-family:'Trebuchet MS';-inkscape-font-specification:'Accent Bold';fill:#333333;fill-opacity:1;stroke:none"
         id="path2825"
         inkscape:connector-curvature="0" />
      <path
         d="m 200.8123,1020.4351 v -0.603 c -0.19174,0.2103 -0.51644,0.3958 -0.97412,0.5566 -0.45769,0.1547 -0.93083,0.232 -1.41943,0.232 -1.38542,0 -2.47706,-0.4392 -3.27491,-1.3174 -0.79166,-0.8783 -1.1875,-2.1029 -1.1875,-3.6738 0,-1.571 0.45459,-2.8482 1.36377,-3.8316 0.91537,-0.9896 2.05957,-1.4844 3.43262,-1.4844 0.75455,0 1.44108,0.1547 2.05957,0.4639 v -3.98 l 2.31934,-0.5566 v 14.1943 h -2.31934 m 0,-7.561 c -0.4948,-0.3958 -1.01124,-0.5938 -1.54931,-0.5938 -0.92774,0 -1.6421,0.2845 -2.14307,0.8536 -0.50098,0.5628 -0.75147,1.373 -0.75147,2.4306 0,2.0658 0.99577,3.0986 2.98731,3.0986 0.22265,0 0.49478,-0.065 0.8164,-0.1948 0.3278,-0.136 0.54118,-0.2721 0.64014,-0.4082 v -5.186"
         style="font-style:normal;font-variant:normal;font-weight:bold;font-stretch:normal;font-size:19px;font-family:'Trebuchet MS';-inkscape-font-specification:'Accent Bold';fill:#333333;fill-opacity:1;stroke:none"
         id="path2827"
         inkscape:connector-curvature="0" />
      <path
         d="m 214.31084,1016.1768 h -7.09717 c 0.0433,0.7917 0.31543,1.4071 0.81641,1.8462 0.50097,0.4391 1.17512,0.6587 2.02246,0.6587 1.05761,0 1.86164,-0.2752 2.41211,-0.8257 l 0.8999,1.772 c -0.81642,0.6618 -2.03484,0.9927 -3.65528,0.9927 -1.5153,0 -2.71517,-0.4423 -3.59961,-1.3267 -0.87825,-0.8906 -1.31738,-2.1307 -1.31738,-3.7202 0,-1.5648 0.48242,-2.8327 1.44727,-3.8037 0.97102,-0.971 2.13378,-1.4566 3.48828,-1.4566 1.44107,0 2.59765,0.4299 3.46973,1.2896 0.87206,0.8597 1.30809,1.9544 1.3081,3.2842 -1e-5,0.2845 -0.065,0.7143 -0.19482,1.2895 m -7.01368,-1.7441 h 4.87989 c -0.16082,-1.4535 -0.96485,-2.1802 -2.41211,-2.1802 -1.32357,0 -2.14616,0.7267 -2.46778,2.1802"
         style="font-style:normal;font-variant:normal;font-weight:bold;font-stretch:normal;font-size:19px;font-family:'Trebuchet MS';-inkscape-font-specification:'Accent Bold';fill:#333333;fill-opacity:1;stroke:none"
         id="path2829"
         inkscape:connector-curvature="0" />
      <path
         d="m 222.74394,1020.4351 v -5.7427 c -1e-5,-0.8473 -0.1639,-1.4658 -0.4917,-1.8554 -0.32162,-0.3897 -0.85043,-0.5845 -1.58642,-0.5845 -0.34018,0 -0.70509,0.096 -1.09473,0.2876 -0.38347,0.1917 -0.68343,0.4299 -0.8999,0.7144 v 7.1806 h -2.31934 v -9.936 h 1.66992 l 0.42676,0.9277 c 0.63086,-0.7422 1.56168,-1.1133 2.79248,-1.1133 1.18131,0 2.11214,0.3557 2.79248,1.0669 0.68652,0.7051 1.02978,1.6916 1.02979,2.9595 v 6.0952 h -2.31934"
         style="font-style:normal;font-variant:normal;font-weight:bold;font-stretch:normal;font-size:19px;font-family:'Trebuchet MS';-inkscape-font-specification:'Accent Bold';fill:#333333;fill-opacity:1;stroke:none"
         id="path2831"
         inkscape:connector-curvature="0" />
      <path
         d="m 227.91142,1012.3638 h -1.15039 v -1.8647 h 1.15039 v -2.0225 l 2.31934,-0.8535 v 2.876 h 2.72754 v 1.8647 h -2.72754 v 4.3511 c -1e-5,0.7113 0.11132,1.2153 0.33398,1.5122 0.22265,0.2907 0.6123,0.436 1.16895,0.436 0.55663,0 1.07616,-0.1515 1.55859,-0.4545 v 2.1337 c -0.53809,0.1856 -1.30502,0.2784 -2.30078,0.2784 -0.98959,0 -1.75033,-0.2784 -2.28223,-0.835 -0.5319,-0.5628 -0.79785,-1.3607 -0.79785,-2.3935 v -5.0284"
         style="font-style:normal;font-variant:normal;font-weight:bold;font-stretch:normal;font-size:19px;font-family:'Trebuchet MS';-inkscape-font-specification:'Accent Bold';fill:#333333;fill-opacity:1;stroke:none"
         id="path2833"
         inkscape:connector-curvature="0" />
      <path
         d="m 236.91045,1006.649 c 0.37109,0 0.68652,0.133 0.94629,0.3989 0.26594,0.2598 0.39892,0.5752 0.39892,0.9463 0,0.3711 -0.13298,0.6896 -0.39892,0.9556 -0.25977,0.2597 -0.5752,0.3896 -0.94629,0.3896 -0.3711,0 -0.68962,-0.1299 -0.95557,-0.3896 -0.25977,-0.266 -0.38965,-0.5845 -0.38965,-0.9556 0,-0.3711 0.12988,-0.6865 0.38965,-0.9463 0.26595,-0.2659 0.58447,-0.3989 0.95557,-0.3989 m -1.19678,13.7861 v -8.0342 h -1.271 v -1.9018 h 3.61817 v 9.936 h -2.34717"
         style="font-style:normal;font-variant:normal;font-weight:bold;font-stretch:normal;font-size:19px;font-family:'Trebuchet MS';-inkscape-font-specification:'Accent Bold';fill:#333333;fill-opacity:1;stroke:none"
         id="path2835"
         inkscape:connector-curvature="0" />
      <path
         d="m 240.15752,1019.795 0.82568,-1.8462 c 0.69271,0.5504 1.47509,0.8257 2.34717,0.8257 0.90299,0 1.35449,-0.3216 1.35449,-0.9649 0,-0.3772 -0.13607,-0.6865 -0.4082,-0.9277 -0.27214,-0.2412 -0.80095,-0.5257 -1.58643,-0.8535 -1.71322,-0.7113 -2.56982,-1.707 -2.56982,-2.9873 0,-0.8597 0.3278,-1.5277 0.9834,-2.0039 0.65559,-0.4824 1.49364,-0.7237 2.51416,-0.7237 1.03287,0 2.0039,0.232 2.91308,0.6958 l -0.66797,1.7998 c -0.50716,-0.4329 -1.21224,-0.6494 -2.11523,-0.6494 -0.81023,0 -1.21534,0.3217 -1.21533,0.9649 -1e-5,0.2536 0.13297,0.4824 0.39892,0.6865 0.26595,0.2041 0.83496,0.4793 1.70703,0.8257 0.87207,0.3402 1.49983,0.7545 1.8833,1.2431 0.38346,0.4887 0.57519,1.0793 0.5752,1.772 -1e-5,0.9216 -0.34327,1.6483 -1.02979,2.1802 -0.68034,0.5257 -1.60807,0.7886 -2.7832,0.7886 -0.66179,0 -1.19369,-0.056 -1.5957,-0.167 -0.39584,-0.1052 -0.90609,-0.3247 -1.53076,-0.6587"
         style="font-style:normal;font-variant:normal;font-weight:bold;font-stretch:normal;font-size:19px;font-family:'Trebuchet MS';-inkscape-font-specification:'Accent Bold';fill:#333333;fill-opacity:1;stroke:none"
         id="path2837"
         inkscape:connector-curvature="0" />
      <path
         d="m 256.76396,1011.2877 -0.99267,1.7348 c -0.54428,-0.5133 -1.2741,-0.77 -2.18946,-0.77 -0.87826,0 -1.57406,0.2938 -2.0874,0.8814 -0.50716,0.5813 -0.76074,1.3885 -0.76074,2.4213 0,2.0843 0.99267,3.1265 2.97803,3.1265 0.85969,0 1.61734,-0.2845 2.27294,-0.8535 l 0.85352,1.8276 c -0.67416,0.4206 -1.26482,0.6865 -1.77197,0.7979 -0.50099,0.1113 -1.09473,0.167 -1.78125,0.167 -1.53386,0 -2.7461,-0.4453 -3.63672,-1.336 -0.88444,-0.8968 -1.32666,-2.1399 -1.32666,-3.7295 0,-1.5647 0.48551,-2.8295 1.45654,-3.7944 0.97103,-0.9648 2.29459,-1.4473 3.97071,-1.4473 1.15656,0 2.16161,0.3248 3.01513,0.9742"
         style="font-style:normal;font-variant:normal;font-weight:bold;font-stretch:normal;font-size:19px;font-family:'Trebuchet MS';-inkscape-font-specification:'Accent Bold';fill:#333333;fill-opacity:1;stroke:none"
         id="path2839"
         inkscape:connector-curvature="0" />
      <path
         d="m 265.12285,1020.4351 v -6.123 c -1e-5,-0.6123 -0.19174,-1.104 -0.5752,-1.4751 -0.38347,-0.3711 -0.88444,-0.5567 -1.50293,-0.5567 -0.38347,0 -0.77002,0.1052 -1.15966,0.3155 -0.38966,0.2041 -0.66798,0.4391 -0.83497,0.705 v 7.1343 h -2.35644 v -13.6377 l 2.35644,-0.5566 v 4.8891 c 0.59994,-0.5442 1.42562,-0.8164 2.47706,-0.8164 1.24315,0 2.20799,0.3464 2.89453,1.0391 0.68651,0.6865 1.02977,1.673 1.02978,2.9595 v 6.123 h -2.32861"
         style="font-style:normal;font-variant:normal;font-weight:bold;font-stretch:normal;font-size:19px;font-family:'Trebuchet MS';-inkscape-font-specification:'Accent Bold';fill:#333333;fill-opacity:1;stroke:none"
         id="path2841"
         inkscape:connector-curvature="0" />
      <path
         d="m 278.84404,1016.1768 h -7.09717 c 0.0433,0.7917 0.31543,1.4071 0.81641,1.8462 0.50097,0.4391 1.17512,0.6587 2.02246,0.6587 1.05761,0 1.86165,-0.2752 2.41211,-0.8257 l 0.8999,1.772 c -0.81641,0.6618 -2.03484,0.9927 -3.65527,0.9927 -1.51531,0 -2.71517,-0.4423 -3.59961,-1.3267 -0.87826,-0.8906 -1.31739,-2.1307 -1.31738,-3.7202 -10e-6,-1.5648 0.48242,-2.8327 1.44726,-3.8037 0.97103,-0.971 2.13379,-1.4566 3.48828,-1.4566 1.44108,0 2.59765,0.4299 3.46973,1.2896 0.87206,0.8597 1.30809,1.9544 1.3081,3.2842 -10e-6,0.2845 -0.065,0.7143 -0.19482,1.2895 m -7.01367,-1.7441 h 4.87988 c -0.16081,-1.4535 -0.96485,-2.1802 -2.41211,-2.1802 -1.32357,0 -2.14616,0.7267 -2.46777,2.1802"
         style="font-style:normal;font-variant:normal;font-weight:bold;font-stretch:normal;font-size:19px;font-family:'Trebuchet MS';-inkscape-font-specification:'Accent Bold';fill:#333333;fill-opacity:1;stroke:none"
         id="path2843"
         inkscape:connector-curvature="0" />
      <path
         d="m 280.27275,1019.795 0.82568,-1.8462 c 0.69271,0.5504 1.4751,0.8257 2.34717,0.8257 0.90299,0 1.35449,-0.3216 1.35449,-0.9649 0,-0.3772 -0.13607,-0.6865 -0.4082,-0.9277 -0.27214,-0.2412 -0.80095,-0.5257 -1.58642,-0.8535 -1.71322,-0.7113 -2.56983,-1.707 -2.56983,-2.9873 0,-0.8597 0.3278,-1.5277 0.9834,-2.0039 0.6556,-0.4824 1.49365,-0.7237 2.51416,-0.7237 1.03287,0 2.0039,0.232 2.91309,0.6958 l -0.66797,1.7998 c -0.50717,-0.4329 -1.21225,-0.6494 -2.11524,-0.6494 -0.81022,0 -1.21533,0.3217 -1.21533,0.9649 0,0.2536 0.13297,0.4824 0.39893,0.6865 0.26594,0.2041 0.83495,0.4793 1.70703,0.8257 0.87206,0.3402 1.49983,0.7545 1.8833,1.2431 0.38345,0.4887 0.57519,1.0793 0.57519,1.772 0,0.9216 -0.34326,1.6483 -1.02978,2.1802 -0.68035,0.5257 -1.60808,0.7886 -2.7832,0.7886 -0.66179,0 -1.19369,-0.056 -1.59571,-0.167 -0.39583,-0.1052 -0.90609,-0.3247 -1.53076,-0.6587"
         style="font-style:normal;font-variant:normal;font-weight:bold;font-stretch:normal;font-size:19px;font-family:'Trebuchet MS';-inkscape-font-specification:'Accent Bold';fill:#333333;fill-opacity:1;stroke:none"
         id="path2845"
         inkscape:connector-curvature="0" />
      <path
         d="m 297.35234,1015.4346 v 5.0005 h -2.41211 v -13.582 c 1.60807,-0.068 2.54817,-0.102 2.82031,-0.1021 2.14616,10e-5 3.71403,0.3309 4.70362,0.9927 0.99576,0.6556 1.49364,1.6823 1.49365,3.0801 -10e-6,3.1172 -1.83692,4.6758 -5.51074,4.6758 -0.27214,0 -0.63705,-0.022 -1.09473,-0.065 m 0,-6.4941 v 4.3511 c 0.4082,0.043 0.72981,0.065 0.96484,0.065 1.10091,0 1.90495,-0.1824 2.41211,-0.5474 0.50716,-0.371 0.76074,-0.971 0.76075,-1.7998 -1e-5,-1.4101 -1.13494,-2.1152 -3.40479,-2.1152 -0.25358,0 -0.49789,0.015 -0.73291,0.046"
         style="font-style:normal;font-variant:normal;font-weight:bold;font-stretch:normal;font-size:19px;font-family:'Trebuchet MS';-inkscape-font-specification:'Accent Bold';fill:#333333;fill-opacity:1;stroke:none"
         id="path2847"
         inkscape:connector-curvature="0" />
      <path
         d="m 311.71367,1012.6607 c -0.4144,-0.2721 -0.86899,-0.4082 -1.36377,-0.4082 -0.53809,0 -1.01742,0.2443 -1.43799,0.7329 -0.41439,0.4886 -0.62158,1.0855 -0.62158,1.7905 v 5.6592 h -2.31934 v -9.936 h 2.31934 v 0.9092 c 0.64941,-0.7298 1.5122,-1.0948 2.58838,-1.0948 0.79166,0 1.39778,0.1207 1.81836,0.3619 l -0.9834,1.9853"
         style="font-style:normal;font-variant:normal;font-weight:bold;font-stretch:normal;font-size:19px;font-family:'Trebuchet MS';-inkscape-font-specification:'Accent Bold';fill:#333333;fill-opacity:1;stroke:none"
         id="path2849"
         inkscape:connector-curvature="0" />
      <path
         d="m 313.44853,1015.4439 c 0,-1.5153 0.43604,-2.7492 1.30811,-3.7017 0.87825,-0.9524 2.03482,-1.4287 3.46972,-1.4287 1.50911,0 2.68115,0.4577 3.51612,1.3731 0.83495,0.9154 1.25243,2.1678 1.25244,3.7573 -10e-6,1.5833 -0.42677,2.842 -1.28027,3.7759 -0.84734,0.9339 -2.0101,1.4009 -3.48829,1.4009 -1.50911,0 -2.68424,-0.4701 -3.52539,-1.4102 -0.83496,-0.9463 -1.25244,-2.2018 -1.25244,-3.7666 m 2.41211,0 c 0,2.1895 0.78857,3.2842 2.36572,3.2842 0.72363,0 1.29573,-0.2845 1.71631,-0.8535 0.42675,-0.569 0.64013,-1.3793 0.64014,-2.4307 -10e-6,-2.1585 -0.78549,-3.2378 -2.35645,-3.2378 -0.72363,0 -1.29883,0.2845 -1.72558,0.8535 -0.42676,0.569 -0.64014,1.3638 -0.64014,2.3843"
         style="font-style:normal;font-variant:normal;font-weight:bold;font-stretch:normal;font-size:19px;font-family:'Trebuchet MS';-inkscape-font-specification:'Accent Bold';fill:#333333;fill-opacity:1;stroke:none"
         id="path2851"
         inkscape:connector-curvature="0" />
      <path
         d="m 324.11748,1022.9864 1.46582,-1.8091 c 0.81022,0.7422 1.71321,1.1133 2.70898,1.1133 0.66797,0 1.21842,-0.099 1.65137,-0.2969 0.43294,-0.1979 0.64941,-0.47 0.64941,-0.8164 0,-0.5876 -0.47933,-0.8813 -1.43798,-0.8813 -0.25978,0 -0.64633,0.031 -1.15967,0.093 -0.51335,0.062 -0.89991,0.093 -1.15967,0.093 -1.59571,0 -2.39356,-0.5721 -2.39356,-1.7163 0,-0.3278 0.13298,-0.6494 0.39893,-0.9648 0.26595,-0.3155 0.57519,-0.5474 0.92773,-0.6958 -1.13183,-0.736 -1.69775,-1.7782 -1.69775,-3.1265 0,-1.0638 0.38965,-1.9421 1.16895,-2.6348 0.77929,-0.6989 1.73795,-1.0483 2.87597,-1.0483 0.89062,0 1.6359,0.167 2.23584,0.501 l 0.90918,-1.0577 1.60498,1.4566 -1.104,0.8071 c 0.38345,0.5814 0.57519,1.2679 0.57519,2.0596 0,1.1318 -0.34636,2.0379 -1.03906,2.7182 -0.68653,0.6742 -1.55551,1.0113 -2.60693,1.0113 -0.167,0 -0.38966,-0.015 -0.66797,-0.046 l -0.38037,-0.056 c -0.0433,0 -0.21029,0.068 -0.50098,0.2041 -0.28451,0.1299 -0.42676,0.266 -0.42676,0.4082 0,0.2474 0.21338,0.3711 0.64014,0.3711 0.19173,0 0.51334,-0.046 0.96484,-0.1391 0.4515,-0.093 0.83805,-0.1392 1.15967,-0.1392 2.25748,0 3.38622,0.9061 3.38623,2.7183 -1e-5,1.0019 -0.4515,1.7874 -1.35449,2.3564 -0.903,0.5752 -1.99154,0.8628 -3.26562,0.8628 -1.52149,0 -2.89763,-0.4484 -4.12842,-1.3452 m 2.31933,-8.999 c 0,0.5875 0.16081,1.0607 0.48243,1.4194 0.32779,0.3525 0.76692,0.5288 1.31738,0.5288 0.55045,0 0.97411,-0.1732 1.27099,-0.5195 0.29687,-0.3464 0.44531,-0.8226 0.44532,-1.4287 -10e-6,-0.501 -0.16082,-0.9247 -0.48243,-1.271 -0.31543,-0.3464 -0.72673,-0.5196 -1.23388,-0.5196 -0.53191,0 -0.96485,0.167 -1.29883,0.501 -0.33399,0.334 -0.50098,0.7639 -0.50098,1.2896"
         style="font-style:normal;font-variant:normal;font-weight:bold;font-stretch:normal;font-size:19px;font-family:'Trebuchet MS';-inkscape-font-specification:'Accent Bold';fill:#333333;fill-opacity:1;stroke:none"
         id="path2853"
         inkscape:connector-curvature="0" />
      <path
         d="m 340.13945,1012.6607 c -0.41439,-0.2721 -0.86898,-0.4082 -1.36377,-0.4082 -0.53809,0 -1.01742,0.2443 -1.43799,0.7329 -0.41439,0.4886 -0.62158,1.0855 -0.62158,1.7905 v 5.6592 h -2.31934 v -9.936 h 2.31934 v 0.9092 c 0.64941,-0.7298 1.5122,-1.0948 2.58838,-1.0948 0.79166,0 1.39778,0.1207 1.81836,0.3619 l -0.9834,1.9853"
         style="font-style:normal;font-variant:normal;font-weight:bold;font-stretch:normal;font-size:19px;font-family:'Trebuchet MS';-inkscape-font-specification:'Accent Bold';fill:#333333;fill-opacity:1;stroke:none"
         id="path2855"
         inkscape:connector-curvature="0" />
      <path
         d="m 347.45927,1019.4424 c -0.21029,0.3464 -0.57829,0.6309 -1.104,0.8536 -0.51954,0.2164 -1.06381,0.3247 -1.63281,0.3247 -1.06999,0 -1.91114,-0.266 -2.52344,-0.7979 -0.61231,-0.5381 -0.91846,-1.2988 -0.91846,-2.2822 0,-1.1504 0.42985,-2.0503 1.28955,-2.6997 0.86589,-0.6494 2.09359,-0.9741 3.68311,-0.9741 0.27213,0 0.59374,0.046 0.96484,0.1391 0,-1.1689 -0.7391,-1.7534 -2.21728,-1.7534 -0.87208,0 -1.60189,0.1454 -2.18945,0.436 l -0.50098,-1.7998 c 0.79785,-0.3834 1.74723,-0.5752 2.84814,-0.5752 1.5153,0 2.62548,0.3464 3.33057,1.0391 0.70507,0.6865 1.05761,1.9915 1.05762,3.915 v 2.1246 c -10e-6,1.3235 0.26594,2.1554 0.79785,2.4956 -0.19174,0.3339 -0.40512,0.538 -0.64014,0.6123 -0.23503,0.08 -0.50408,0.1206 -0.80713,0.1206 -0.33399,0 -0.63396,-0.1237 -0.8999,-0.3711 -0.26596,-0.2474 -0.44532,-0.5165 -0.53809,-0.8072 m -0.22265,-3.6831 c -0.39584,-0.08 -0.69272,-0.1206 -0.89063,-0.1206 -1.83073,0 -2.74609,0.6 -2.74609,1.7998 0,0.8907 0.51643,1.336 1.54932,1.336 1.39159,0 2.08739,-0.6958 2.0874,-2.0874 v -0.9278"
         style="font-style:normal;font-variant:normal;font-weight:bold;font-stretch:normal;font-size:19px;font-family:'Trebuchet MS';-inkscape-font-specification:'Accent Bold';fill:#333333;fill-opacity:1;stroke:none"
         id="path2857"
         inkscape:connector-curvature="0" />
      <path
         d="m 363.56474,1020.4351 v -6.2251 c -10e-6,-1.305 -0.58448,-1.9575 -1.75341,-1.9575 -0.34637,0 -0.68035,0.1021 -1.00196,0.3062 -0.32162,0.2041 -0.54737,0.4391 -0.67724,0.705 v 7.1714 h -2.31934 v -6.5869 c -1e-5,-0.4886 -0.15154,-0.8751 -0.45459,-1.1597 -0.30307,-0.2906 -0.72982,-0.436 -1.28027,-0.436 -0.2907,0 -0.60922,0.1082 -0.95557,0.3247 -0.34017,0.2165 -0.58757,0.4546 -0.74219,0.7144 v 7.1435 h -2.31933 v -9.936 h 1.5957 l 0.47314,0.8721 c 0.64323,-0.7051 1.4751,-1.0577 2.49561,-1.0577 1.31738,0 2.31005,0.3588 2.97803,1.0762 0.29068,-0.3278 0.69579,-0.5875 1.21533,-0.7793 0.51952,-0.1979 1.03905,-0.2969 1.55859,-0.2969 1.10709,0 1.96679,0.3186 2.5791,0.9556 0.61848,0.6309 0.92772,1.4998 0.92774,2.6069 v 6.5591 h -2.31934"
         style="font-style:normal;font-variant:normal;font-weight:bold;font-stretch:normal;font-size:19px;font-family:'Trebuchet MS';-inkscape-font-specification:'Accent Bold';fill:#333333;fill-opacity:1;stroke:none"
         id="path2859"
         inkscape:connector-curvature="0" />
      <path
         d="m 379.89287,1020.4351 v -6.2251 c -1e-5,-1.305 -0.58449,-1.9575 -1.75342,-1.9575 -0.34636,0 -0.68035,0.1021 -1.00195,0.3062 -0.32163,0.2041 -0.54738,0.4391 -0.67725,0.705 v 7.1714 h -2.31934 v -6.5869 c 0,-0.4886 -0.15153,-0.8751 -0.45458,-1.1597 -0.30307,-0.2906 -0.72983,-0.436 -1.28028,-0.436 -0.29069,0 -0.60922,0.1082 -0.95556,0.3247 -0.34018,0.2165 -0.58757,0.4546 -0.74219,0.7144 v 7.1435 h -2.31934 v -9.936 h 1.5957 l 0.47315,0.8721 c 0.64322,-0.7051 1.47509,-1.0577 2.4956,-1.0577 1.31738,0 2.31006,0.3588 2.97803,1.0762 0.29068,-0.3278 0.69579,-0.5875 1.21533,-0.7793 0.51953,-0.1979 1.03906,-0.2969 1.5586,-0.2969 1.10708,0 1.96678,0.3186 2.5791,0.9556 0.61847,0.6309 0.92772,1.4998 0.92773,2.6069 v 6.5591 h -2.31933"
         style="font-style:normal;font-variant:normal;font-weight:bold;font-stretch:normal;font-size:19px;font-family:'Trebuchet MS';-inkscape-font-specification:'Accent Bold';fill:#333333;fill-opacity:1;stroke:none"
         id="path2861"
         inkscape:connector-curvature="0" />
      <path
         d="m 391.07207,1020.4351 -2.92237,-4.4995 -1.11328,1.1782 v 3.3213 h -2.31933 v -13.6377 l 2.31933,-0.5566 v 8.0713 l 3.31201,-3.813 h 2.79248 l -3.35839,3.7666 4.04492,6.1694 h -2.75537"
         style="font-style:normal;font-variant:normal;font-weight:bold;font-stretch:normal;font-size:19px;font-family:'Trebuchet MS';-inkscape-font-specification:'Accent Bold';fill:#333333;fill-opacity:1;stroke:none"
         id="path2863"
         inkscape:connector-curvature="0" />
      <path
         d="m 396.96318,1006.649 c 0.37109,0 0.68652,0.133 0.94629,0.3989 0.26595,0.2598 0.39892,0.5752 0.39893,0.9463 -1e-5,0.3711 -0.13298,0.6896 -0.39893,0.9556 -0.25977,0.2597 -0.5752,0.3896 -0.94629,0.3896 -0.3711,0 -0.68962,-0.1299 -0.95557,-0.3896 -0.25976,-0.266 -0.38965,-0.5845 -0.38964,-0.9556 -1e-5,-0.3711 0.12988,-0.6865 0.38964,-0.9463 0.26595,-0.2659 0.58447,-0.3989 0.95557,-0.3989 m -1.19678,13.7861 v -8.0342 h -1.27099 v -1.9018 h 3.61816 v 9.936 h -2.34717"
         style="font-style:normal;font-variant:normal;font-weight:bold;font-stretch:normal;font-size:19px;font-family:'Trebuchet MS';-inkscape-font-specification:'Accent Bold';fill:#333333;fill-opacity:1;stroke:none"
         id="path2865"
         inkscape:connector-curvature="0" />
      <path
         d="m 407.21465,1020.4351 v -5.7427 c -1e-5,-0.8473 -0.16391,-1.4658 -0.4917,-1.8554 -0.32163,-0.3897 -0.85043,-0.5845 -1.58643,-0.5845 -0.34017,0 -0.70508,0.096 -1.09473,0.2876 -0.38346,0.1917 -0.68343,0.4299 -0.8999,0.7144 v 7.1806 h -2.31933 v -9.936 h 1.66992 l 0.42676,0.9277 c 0.63085,-0.7422 1.56168,-1.1133 2.79248,-1.1133 1.1813,0 2.11213,0.3557 2.79248,1.0669 0.68651,0.7051 1.02977,1.6916 1.02978,2.9595 v 6.0952 h -2.31933"
         style="font-style:normal;font-variant:normal;font-weight:bold;font-stretch:normal;font-size:19px;font-family:'Trebuchet MS';-inkscape-font-specification:'Accent Bold';fill:#333333;fill-opacity:1;stroke:none"
         id="path2867"
         inkscape:connector-curvature="0" />
      <path
         d="m 411.38017,1015.4439 c 0,-1.5153 0.43604,-2.7492 1.30811,-3.7017 0.87825,-0.9524 2.03482,-1.4287 3.46972,-1.4287 1.50911,0 2.68115,0.4577 3.51612,1.3731 0.83495,0.9154 1.25243,2.1678 1.25244,3.7573 -10e-6,1.5833 -0.42677,2.842 -1.28027,3.7759 -0.84734,0.9339 -2.0101,1.4009 -3.48829,1.4009 -1.50911,0 -2.68424,-0.4701 -3.52539,-1.4102 -0.83496,-0.9463 -1.25244,-2.2018 -1.25244,-3.7666 m 2.41211,0 c 0,2.1895 0.78857,3.2842 2.36572,3.2842 0.72363,0 1.29573,-0.2845 1.71631,-0.8535 0.42675,-0.569 0.64013,-1.3793 0.64014,-2.4307 -1e-5,-2.1585 -0.78549,-3.2378 -2.35645,-3.2378 -0.72363,0 -1.29883,0.2845 -1.72558,0.8535 -0.42676,0.569 -0.64014,1.3638 -0.64014,2.3843"
         style="font-style:normal;font-variant:normal;font-weight:bold;font-stretch:normal;font-size:19px;font-family:'Trebuchet MS';-inkscape-font-specification:'Accent Bold';fill:#333333;fill-opacity:1;stroke:none"
         id="path2869"
         inkscape:connector-curvature="0" />
      <path
         d="m 434.89824,1020.4351 v -0.603 c -0.19174,0.2103 -0.51645,0.3958 -0.97412,0.5566 -0.45769,0.1547 -0.93083,0.232 -1.41944,0.232 -1.38542,0 -2.47705,-0.4392 -3.2749,-1.3174 -0.79167,-0.8783 -1.1875,-2.1029 -1.1875,-3.6738 0,-1.571 0.45459,-2.8482 1.36377,-3.8316 0.91536,-0.9896 2.05957,-1.4844 3.43262,-1.4844 0.75455,0 1.44107,0.1547 2.05957,0.4639 v -3.98 l 2.31934,-0.5566 v 14.1943 h -2.31934 m 0,-7.561 c -0.4948,-0.3958 -1.01124,-0.5938 -1.54932,-0.5938 -0.92774,0 -1.64209,0.2845 -2.14306,0.8536 -0.50098,0.5628 -0.75147,1.373 -0.75147,2.4306 0,2.0658 0.99577,3.0986 2.98731,3.0986 0.22265,0 0.49478,-0.065 0.8164,-0.1948 0.32779,-0.136 0.54117,-0.2721 0.64014,-0.4082 v -5.186"
         style="font-style:normal;font-variant:normal;font-weight:bold;font-stretch:normal;font-size:19px;font-family:'Trebuchet MS';-inkscape-font-specification:'Accent Bold';fill:#333333;fill-opacity:1;stroke:none"
         id="path2871"
         inkscape:connector-curvature="0" />
      <path
         d="m 448.39677,1016.1768 h -7.09716 c 0.0433,0.7917 0.31542,1.4071 0.8164,1.8462 0.50097,0.4391 1.17513,0.6587 2.02246,0.6587 1.05761,0 1.86165,-0.2752 2.41211,-0.8257 l 0.89991,1.772 c -0.81642,0.6618 -2.03484,0.9927 -3.65528,0.9927 -1.5153,0 -2.71517,-0.4423 -3.59961,-1.3267 -0.87825,-0.8906 -1.31738,-2.1307 -1.31738,-3.7202 0,-1.5648 0.48242,-2.8327 1.44727,-3.8037 0.97102,-0.971 2.13378,-1.4566 3.48828,-1.4566 1.44107,0 2.59764,0.4299 3.46972,1.2896 0.87206,0.8597 1.3081,1.9544 1.30811,3.2842 -1e-5,0.2845 -0.065,0.7143 -0.19483,1.2895 m -7.01367,-1.7441 h 4.87989 c -0.16082,-1.4535 -0.96486,-2.1802 -2.41211,-2.1802 -1.32358,0 -2.14617,0.7267 -2.46778,2.1802"
         style="font-style:normal;font-variant:normal;font-weight:bold;font-stretch:normal;font-size:19px;font-family:'Trebuchet MS';-inkscape-font-specification:'Accent Bold';fill:#333333;fill-opacity:1;stroke:none"
         id="path2873"
         inkscape:connector-curvature="0" />
      <path
         d="m 456.18047,1012.6607 c -0.4144,-0.2721 -0.86899,-0.4082 -1.36377,-0.4082 -0.53809,0 -1.01742,0.2443 -1.43799,0.7329 -0.41439,0.4886 -0.62159,1.0855 -0.62158,1.7905 v 5.6592 h -2.31934 v -9.936 h 2.31934 v 0.9092 c 0.64941,-0.7298 1.5122,-1.0948 2.58837,-1.0948 0.79166,0 1.39778,0.1207 1.81836,0.3619 l -0.98339,1.9853"
         style="font-style:normal;font-variant:normal;font-weight:bold;font-stretch:normal;font-size:19px;font-family:'Trebuchet MS';-inkscape-font-specification:'Accent Bold';fill:#333333;fill-opacity:1;stroke:none"
         id="path2875"
         inkscape:connector-curvature="0" />
      <path
         d="m 469.61406,1008.9869 v 11.4482 h -2.41211 v -11.4482 h -4.32324 v -2.1431 h 11.25342 v 2.1431 h -4.51807"
         style="font-style:normal;font-variant:normal;font-weight:bold;font-stretch:normal;font-size:19px;font-family:'Trebuchet MS';-inkscape-font-specification:'Accent Bold';fill:#333333;fill-opacity:1;stroke:none"
         id="path2877"
         inkscape:connector-curvature="0" />
      <path
         d="m 475.7,1006.8438 h 2.41211 v 9.2124 c -10e-6,0.7298 0.22265,1.3236 0.66797,1.7813 0.4453,0.4576 1.05761,0.6865 1.83691,0.6865 0.87206,0 1.54931,-0.2227 2.03174,-0.668 0.4886,-0.4515 0.7329,-1.0669 0.73291,-1.8462 v -9.166 h 2.41211 v 9.3516 c -10e-6,1.3978 -0.47007,2.4925 -1.41016,3.2842 -0.93393,0.7916 -2.18328,1.1875 -3.74805,1.1875 -1.57715,0 -2.79557,-0.3866 -3.65527,-1.1597 -0.85352,-0.7731 -1.28027,-1.8802 -1.28027,-3.3213 v -9.3423"
         style="font-style:normal;font-variant:normal;font-weight:bold;font-stretch:normal;font-size:19px;font-family:'Trebuchet MS';-inkscape-font-specification:'Accent Bold';fill:#333333;fill-opacity:1;stroke:none"
         id="path2879"
         inkscape:connector-curvature="0" />
      <path
         d="m 497.30693,1020.4351 h -3.01514 v -13.582 c 1.9235,-0.068 3.13265,-0.102 3.62745,-0.1021 1.97915,10e-5 3.54702,0.5814 4.70361,1.7442 1.16275,1.1566 1.74413,2.6935 1.74414,4.6108 -10e-6,4.8861 -2.35336,7.3291 -7.06006,7.3291 m -0.60303,-11.4761 v 9.2774 c 0.38965,0.037 0.81022,0.056 1.26172,0.056 1.21842,0 2.17089,-0.4423 2.85742,-1.3267 0.6927,-0.8844 1.03906,-2.1214 1.03907,-3.7109 -10e-6,-2.9069 -1.35141,-4.3604 -4.0542,-4.3604 -0.25977,0 -0.62777,0.022 -1.10401,0.065"
         style="font-style:normal;font-variant:normal;font-weight:bold;font-stretch:normal;font-size:19px;font-family:'Trebuchet MS';-inkscape-font-specification:'Accent Bold';fill:#333333;fill-opacity:1;stroke:none"
         id="path2881"
         inkscape:connector-curvature="0" />
      <path
         d="m 512.10429,1012.6607 c -0.41439,-0.2721 -0.86898,-0.4082 -1.36377,-0.4082 -0.53809,0 -1.01742,0.2443 -1.43798,0.7329 -0.4144,0.4886 -0.62159,1.0855 -0.62159,1.7905 v 5.6592 h -2.31933 v -9.936 h 2.31933 v 0.9092 c 0.64941,-0.7298 1.51221,-1.0948 2.58838,-1.0948 0.79166,0 1.39778,0.1207 1.81836,0.3619 l -0.9834,1.9853"
         style="font-style:normal;font-variant:normal;font-weight:bold;font-stretch:normal;font-size:19px;font-family:'Trebuchet MS';-inkscape-font-specification:'Accent Bold';fill:#333333;fill-opacity:1;stroke:none"
         id="path2883"
         inkscape:connector-curvature="0" />
      <path
         d="m 523.35771,1016.1768 h -7.09717 c 0.0433,0.7917 0.31543,1.4071 0.81641,1.8462 0.50097,0.4391 1.17513,0.6587 2.02246,0.6587 1.05761,0 1.86165,-0.2752 2.41211,-0.8257 l 0.8999,1.772 c -0.81641,0.6618 -2.03484,0.9927 -3.65527,0.9927 -1.5153,0 -2.71517,-0.4423 -3.59961,-1.3267 -0.87826,-0.8906 -1.31738,-2.1307 -1.31738,-3.7202 0,-1.5648 0.48242,-2.8327 1.44726,-3.8037 0.97103,-0.971 2.13379,-1.4566 3.48828,-1.4566 1.44108,0 2.59765,0.4299 3.46973,1.2896 0.87206,0.8597 1.3081,1.9544 1.30811,3.2842 -10e-6,0.2845 -0.065,0.7143 -0.19483,1.2895 m -7.01367,-1.7441 h 4.87988 c -0.16081,-1.4535 -0.96485,-2.1802 -2.41211,-2.1802 -1.32357,0 -2.14616,0.7267 -2.46777,2.1802"
         style="font-style:normal;font-variant:normal;font-weight:bold;font-stretch:normal;font-size:19px;font-family:'Trebuchet MS';-inkscape-font-specification:'Accent Bold';fill:#333333;fill-opacity:1;stroke:none"
         id="path2885"
         inkscape:connector-curvature="0" />
      <path
         d="m 524.78642,1019.795 0.82569,-1.8462 c 0.6927,0.5504 1.47509,0.8257 2.34716,0.8257 0.90299,0 1.35449,-0.3216 1.3545,-0.9649 -10e-6,-0.3772 -0.13608,-0.6865 -0.40821,-0.9277 -0.27214,-0.2412 -0.80094,-0.5257 -1.58642,-0.8535 -1.71322,-0.7113 -2.56983,-1.707 -2.56983,-2.9873 0,-0.8597 0.3278,-1.5277 0.9834,-2.0039 0.6556,-0.4824 1.49365,-0.7237 2.51416,-0.7237 1.03287,0 2.0039,0.232 2.91309,0.6958 l -0.66797,1.7998 c -0.50717,-0.4329 -1.21225,-0.6494 -2.11524,-0.6494 -0.81022,0 -1.21533,0.3217 -1.21533,0.9649 0,0.2536 0.13297,0.4824 0.39893,0.6865 0.26595,0.2041 0.83496,0.4793 1.70703,0.8257 0.87206,0.3402 1.49983,0.7545 1.8833,1.2431 0.38346,0.4887 0.57519,1.0793 0.5752,1.772 -10e-6,0.9216 -0.34327,1.6483 -1.02979,2.1802 -0.68034,0.5257 -1.60808,0.7886 -2.7832,0.7886 -0.66179,0 -1.19369,-0.056 -1.59571,-0.167 -0.39583,-0.1052 -0.90608,-0.3247 -1.53076,-0.6587"
         style="font-style:normal;font-variant:normal;font-weight:bold;font-stretch:normal;font-size:19px;font-family:'Trebuchet MS';-inkscape-font-specification:'Accent Bold';fill:#333333;fill-opacity:1;stroke:none"
         id="path2887"
         inkscape:connector-curvature="0" />
      <path
         d="m 539.99199,1020.4351 v -0.603 c -0.19174,0.2103 -0.51645,0.3958 -0.97412,0.5566 -0.45769,0.1547 -0.93083,0.232 -1.41944,0.232 -1.38542,0 -2.47705,-0.4392 -3.2749,-1.3174 -0.79167,-0.8783 -1.1875,-2.1029 -1.1875,-3.6738 0,-1.571 0.45459,-2.8482 1.36377,-3.8316 0.91536,-0.9896 2.05957,-1.4844 3.43262,-1.4844 0.75455,0 1.44107,0.1547 2.05957,0.4639 v -3.98 l 2.31934,-0.5566 v 14.1943 h -2.31934 m 0,-7.561 c -0.4948,-0.3958 -1.01124,-0.5938 -1.54932,-0.5938 -0.92774,0 -1.64209,0.2845 -2.14306,0.8536 -0.50098,0.5628 -0.75147,1.373 -0.75147,2.4306 0,2.0658 0.99577,3.0986 2.98731,3.0986 0.22265,0 0.49478,-0.065 0.8164,-0.1948 0.32779,-0.136 0.54117,-0.2721 0.64014,-0.4082 v -5.186"
         style="font-style:normal;font-variant:normal;font-weight:bold;font-stretch:normal;font-size:19px;font-family:'Trebuchet MS';-inkscape-font-specification:'Accent Bold';fill:#333333;fill-opacity:1;stroke:none"
         id="path2889"
         inkscape:connector-curvature="0" />
      <path
         d="m 553.49052,1016.1768 h -7.09716 c 0.0433,0.7917 0.31542,1.4071 0.8164,1.8462 0.50097,0.4391 1.17513,0.6587 2.02246,0.6587 1.05761,0 1.86165,-0.2752 2.41211,-0.8257 l 0.89991,1.772 c -0.81642,0.6618 -2.03484,0.9927 -3.65528,0.9927 -1.5153,0 -2.71517,-0.4423 -3.59961,-1.3267 -0.87825,-0.8906 -1.31738,-2.1307 -1.31738,-3.7202 0,-1.5648 0.48242,-2.8327 1.44727,-3.8037 0.97102,-0.971 2.13378,-1.4566 3.48828,-1.4566 1.44107,0 2.59764,0.4299 3.46972,1.2896 0.87206,0.8597 1.3081,1.9544 1.30811,3.2842 -10e-6,0.2845 -0.0649,0.7143 -0.19483,1.2895 m -7.01367,-1.7441 h 4.87989 c -0.16082,-1.4535 -0.96486,-2.1802 -2.41211,-2.1802 -1.32358,0 -2.14617,0.7267 -2.46778,2.1802"
         style="font-style:normal;font-variant:normal;font-weight:bold;font-stretch:normal;font-size:19px;font-family:'Trebuchet MS';-inkscape-font-specification:'Accent Bold';fill:#333333;fill-opacity:1;stroke:none"
         id="path2891"
         inkscape:connector-curvature="0" />
      <path
         d="m 561.92363,1020.4351 v -5.7427 c -10e-6,-0.8473 -0.16391,-1.4658 -0.4917,-1.8554 -0.32162,-0.3897 -0.85043,-0.5845 -1.58643,-0.5845 -0.34017,0 -0.70508,0.096 -1.09472,0.2876 -0.38347,0.1917 -0.68344,0.4299 -0.8999,0.7144 v 7.1806 h -2.31934 v -9.936 h 1.66992 l 0.42676,0.9277 c 0.63085,-0.7422 1.56168,-1.1133 2.79248,-1.1133 1.18131,0 2.11213,0.3557 2.79248,1.0669 0.68651,0.7051 1.02978,1.6916 1.02979,2.9595 v 6.0952 h -2.31934"
         style="font-style:normal;font-variant:normal;font-weight:bold;font-stretch:normal;font-size:19px;font-family:'Trebuchet MS';-inkscape-font-specification:'Accent Bold';fill:#333333;fill-opacity:1;stroke:none"
         id="path2893"
         inkscape:connector-curvature="0" />
    </g>
  </g>
</svg>
